<svg xmlns="http://www.w3.org/2000/svg" xmlns:xlink="http://www.w3.org/1999/xlink" version="1.1" id="Capa_1" x="0px" y="0px" viewBox="0 0 512 512" style="enable-background:new 0 0 512 512;" xml:space="preserve">
<path style="fill:#28384C;" d="M384,0H128c-23.521,0-42.667,19.135-42.667,42.667v426.667C85.333,492.865,104.479,512,128,512h256  c23.521,0,42.667-19.135,42.667-42.667V42.667C426.667,19.135,407.521,0,384,0z M213.333,106.667h-42.667  c-11.771,0-21.333-9.573-21.333-21.333S158.896,64,170.667,64h42.667c11.771,0,21.333,9.573,21.333,21.333  S225.104,106.667,213.333,106.667z"/>
<path style="fill:#00A99D;" d="M384,21.333H128c-11.771,0-21.333,9.573-21.333,21.333v426.667c0,11.76,9.563,21.333,21.333,21.333  h256c11.771,0,21.333-9.573,21.333-21.333V42.667C405.333,30.906,395.771,21.333,384,21.333z M213.333,128h-42.667  C147.146,128,128,108.865,128,85.333s19.146-42.667,42.667-42.667h42.667c23.521,0,42.667,19.135,42.667,42.667  S236.854,128,213.333,128z"/>
<path style="opacity:0.1;enable-background:new    ;" d="M384,21.333h-32v352c0,35.346-28.654,64-64,64H106.667v32  c0,11.76,9.563,21.333,21.333,21.333h256c11.771,0,21.333-9.573,21.333-21.333V42.667C405.333,30.906,395.771,21.333,384,21.333z"/>
<circle style="fill:#303C42;" cx="298.667" cy="85.333" r="21.333"/>
<linearGradient id="SVGID_1_" gradientUnits="userSpaceOnUse" x1="-45.2742" y1="639.4139" x2="-24.132" y2="629.5548" gradientTransform="matrix(21.3333 0 0 -21.3333 996.3334 13791.667)">
	<stop offset="0" style="stop-color:#FFFFFF;stop-opacity:0.2"/>
	<stop offset="1" style="stop-color:#FFFFFF;stop-opacity:0"/>
</linearGradient>
<path style="fill:url(#SVGID_1_);" d="M384,0H128c-23.521,0-42.667,19.135-42.667,42.667v426.667  C85.333,492.865,104.479,512,128,512h256c23.521,0,42.667-19.135,42.667-42.667V42.667C426.667,19.135,407.521,0,384,0z   M213.333,106.667h-42.667c-11.771,0-21.333-9.573-21.333-21.333S158.896,64,170.667,64h42.667c11.771,0,21.333,9.573,21.333,21.333  S225.104,106.667,213.333,106.667z"/>
<g>
</g>
<g>
</g>
<g>
</g>
<g>
</g>
<g>
</g>
<g>
</g>
<g>
</g>
<g>
</g>
<g>
</g>
<g>
</g>
<g>
</g>
<g>
</g>
<g>
</g>
<g>
</g>
<g>
</g>
</svg>