<?xml version="1.0" encoding="utf-8"?>
<!DOCTYPE svg PUBLIC "-//W3C//DTD SVG 1.1//EN" "http://www.w3.org/Graphics/SVG/1.1/DTD/svg11.dtd">
<svg version="1.1" xmlns="http://www.w3.org/2000/svg" xmlns:xlink="http://www.w3.org/1999/xlink" x="0px" y="0px" viewBox="0 0 1000 1000" enable-background="new 0 0 1000 1000" xml:space="preserve">
<g><path d="M371.5,636.5c-0.5-1.2-1.7-1.9-3-1.9c0,0,0,0,0,0l-202.3,0.8L303.3,402c0.8-1.4,0.5-3.3-0.9-4.3c-1.3-1-3.2-0.8-4.3,0.4L10.8,713.4c-0.9,0.9-1.1,2.3-0.6,3.5c0.5,1.2,1.6,1.9,2.9,2l183.7,6.1L59.4,973.7c-0.8,1.4-0.4,3.3,1,4.2c0.6,0.4,1.2,0.6,1.9,0.6c0.9,0,1.8-0.4,2.4-1.1L371,640C371.8,639.1,372,637.7,371.5,636.5z"/><path d="M962.6,339.5c-20.8-59.5-52.5-113.6-94-160.8c-43-48.8-94.7-88-153.8-116.4c-59.1-28.4-122-44.5-186.9-47.6c-62.7-3-124.7,6-184.3,26.8C284,62.4,230,94,182.8,135.5c-48.8,43-88,94.7-116.4,153.8c-32.7,68-48.9,140.4-48.1,215.2c0.1,12.6,10.5,22.6,23,22.5c12.6-0.1,22.6-10.4,22.5-23c-0.7-67.8,14-133.4,43.6-195C212.7,90.3,476.3-2,695.1,103.3c106,51,185.7,140.2,224.6,251.2c38.9,111,32.2,230.5-18.8,336.4c-105.3,218.7-368.9,311-587.7,205.7c-11.3-5.4-24.9-0.7-30.4,10.6c-5.4,11.3-0.7,24.9,10.6,30.4c59.1,28.4,122,44.4,186.9,47.6c7.9,0.4,15.8,0.6,23.7,0.6c54.6,0,108.5-9.2,160.6-27.4c59.5-20.8,113.6-52.5,160.8-94c48.8-43,88-94.7,116.4-153.8c28.4-59.1,44.5-122,47.6-186.9C992.5,461,983.4,399.1,962.6,339.5z"/><path d="M502.9,152.7c-12.6,0-22.7,10.2-22.7,22.7V500c0,12.6,10.2,22.7,22.7,22.7h225.7c12.6,0,22.7-10.2,22.7-22.7c0-12.6-10.2-22.7-22.7-22.7H525.6V175.4C525.6,162.9,515.4,152.7,502.9,152.7z"/></g>
</svg>