<?xml version="1.0" encoding="utf-8"?>
<!DOCTYPE svg PUBLIC "-//W3C//DTD SVG 1.1//EN" "http://www.w3.org/Graphics/SVG/1.1/DTD/svg11.dtd">
<svg version="1.1" xmlns="http://www.w3.org/2000/svg" xmlns:xlink="http://www.w3.org/1999/xlink" x="0px" y="0px" viewBox="0 0 1000 1000" enable-background="new 0 0 1000 1000" xml:space="preserve">
<g><path d="M470.2,931.6C102.7,813.2,90.9,517.8,90.6,220.9l1.4,0c140.2,0,267.3-48.2,378.2-143.2c110.9,95,238,143.2,378.2,143.2l1.4,0c-0.1,71.5-0.9,143-7.1,211.9c19.3,7.8,37.4,17.6,54.3,29.3c9.6-88.6,9.6-180.2,9.6-269.5l0.1-2.2c-0.8-15.7-13.7-27.9-29.8-26.9c-9.4,0.5-18.9,0.7-28.5,0.7c-134.5,0-255.9-49.5-360.9-147c-4.8-4.5-10.8-6.5-16.8-7V10l-0.5,0.1l-0.5-0.1v0.2c-6.1,0.5-12.1,2.5-16.8,7c-105,97.6-226.5,147-360.9,147c-9.6,0-19-0.3-28.5-0.7c-16.1-1-29,11.3-29.8,26.9l0.1,2.2C33.7,509.5,34,855.9,462,988.7c2.6,0.8,5.2,1.1,7.7,1.2v0.1l0.2,0l0.2,0l0.2,0l0.2,0v-0.1c2.6-0.1,5.2-0.4,7.7-1.2c49.5-15.4,93-33.7,131.8-54.4c-19.3-10.2-37.1-22.7-53.4-37C530.2,909.9,501.6,921.4,470.2,931.6z M740.2,465.5c-124.9,0-226.1,101.2-226.1,226.1c0,124.9,101.2,226.1,226.1,226.1s226.1-101.2,226.1-226.1C966.3,566.7,865.1,465.5,740.2,465.5z M740.2,882.9c-105.7,0-191.3-85.7-191.3-191.3c0-105.7,85.7-191.3,191.3-191.3c105.7,0,191.3,85.7,191.3,191.3C931.6,797.2,845.9,882.9,740.2,882.9z M759.1,683.7V553.4h-37.7v168h157v-37.7H759.1z"/></g>
</svg>